<?xml version="1.0" encoding="UTF-8" standalone="no"?>
<svg width="239px" height="175px" viewBox="0 0 239 175" version="1.1" xmlns="http://www.w3.org/2000/svg" xmlns:xlink="http://www.w3.org/1999/xlink" xmlns:sketch="http://www.bohemiancoding.com/sketch/ns">
    <g id="lilly">
        <path d="M234.978641,167.416667 C227.111068,166.8975 221.840388,163.788333 217.275728,159.104167 C219.145631,155.360333 220.522718,151.219833 221.539806,147.144667 C225.750291,130.285167 225.683883,112.235667 224.977864,94.9818333 C224.676117,87.6201667 224.197282,80.2351667 223.328155,72.9166667 C222.894757,69.2638333 217.184854,69.1238333 217.502913,72.9166667 C218.607379,86.0428333 217.928155,113.6555 199.484272,113.135167 C187.978252,112.809667 185.429126,98.2205 184.702136,89.3305 C184.368932,85.239 184.403883,81.1276667 184.473786,77.0268333 C184.508738,74.9968333 184.893204,72.3135 182.87068,71.0745 C181.986408,70.5331667 180.816699,70.5565 179.930097,71.0745 C176.818252,72.8945 178.066019,81.1346667 177.874951,84.0408333 C177.333204,92.2541667 175.853592,100.899167 171.12466,107.807 C167.358058,113.310167 158.459417,116.97 152.942913,112.042 C147.845825,107.487333 145.513398,99.8445 143.64699,93.5176667 C142.839612,90.783 142.132427,88.0086667 141.498641,85.2086667 C144.287767,73.7135 145.728932,61.761 146.627184,50.2285 C147.200388,42.8645 147.488155,35.3535 146.636505,27.9988333 C146.205437,24.2806667 145.554175,18.7308333 141.495146,17.1756667 C131.791456,13.4586667 131.854369,37.6285 131.742524,41.8261667 C131.365049,55.9895 132.506796,70.5891667 135.455534,84.5973333 C133.838447,91.3803333 131.798447,98.119 128.856699,104.4155 C126.994951,108.399667 123.659417,115.322667 118.473786,115.5 C113.468738,115.6715 110.123883,108.242167 108.400777,104.616167 C105.583689,98.6918333 103.756893,92.2436667 102.287767,85.8001667 C103.714951,78.2845 104.557282,70.6603333 105.309903,63.4865 C106.212816,54.8625 106.666019,46.172 106.520388,37.5001667 C106.426019,31.9456667 106.301359,25.8615 104.466408,20.5566667 C103.300194,17.1861667 100.225631,14.2986667 96.6116505,16.5666667 C92.8473786,18.9291667 92.2939806,24.8208333 91.7720388,28.7525 C89.5631068,45.3495 91.9642718,63.126 95.0132039,79.4558333 C95.3580583,81.3003333 95.7262136,83.2685 96.1304854,85.2985 C95.7763107,86.9621667 95.4198058,88.6246667 95.0260194,90.272 C93.0279612,98.6206667 86.5269903,124.922 73.1300971,114.107 C66.4543689,108.719333 64.1172816,98.5413333 62.4524272,90.5695 C61.6403883,86.6868333 61.0613592,82.7341667 60.6885437,78.7698333 C60.5941748,76.8483333 60.4625243,75.0656667 60.3133981,73.5 C59.9615534,69.825 54.3425243,69.6873333 54.4881553,73.5 C54.5836893,76.0188333 54.7491262,78.5948333 54.9984466,81.1953333 C55.3724272,91.8995 54.2132039,103.647833 48.4380583,112.159833 C44.6726214,117.709667 37.0415534,118.830833 31.8768932,114.692667 C26.758835,110.590667 24.0361165,103.804167 21.9809709,97.783 C20.1005825,92.2786667 18.6932039,86.5981667 17.6306796,80.8278333 C20.8846602,66.2083333 23.136699,51.3601667 24.3914563,36.5061667 C24.8038835,31.6376667 28.7533981,-3.06483333 16.4108738,-0.0571666667 C12.9471845,0.7875 11.8683495,5.86016667 11.1996117,8.74883333 C9.75029126,15.0185 9.29592233,21.5705 8.94873786,27.9778333 C8.00737864,45.4008333 8.95456311,63.0851667 11.8182524,80.3028333 C8.71456311,93.9995 4.70796117,107.493167 -0.165436893,120.5575 C-1.4831068,124.089 4.14873786,125.599833 5.45126214,122.109167 C8.93941748,112.7595 11.9545631,103.206833 14.5269903,93.5246667 C18.3693204,108.43 26.0027184,125.274333 42.4473786,122.714667 C52.2675728,121.186333 57.0687379,112.176167 59.2415534,101.808 C60.5697087,105.631167 62.2264078,109.288667 64.3060194,112.641667 C67.9549515,118.524 74.5234951,123.547667 81.8085437,122.329667 C87.0652427,121.45 90.6396117,116.841667 93.1526214,112.504 C95.7285437,108.057833 97.7102913,103.215 99.2726214,98.168 C101.861359,106.5715 105.740971,114.577167 112.205825,119.3045 C123.344854,127.449 132.192233,111.582333 135.641942,103.359667 C136.631068,101.000667 137.52466,98.5938333 138.349515,96.1531667 C142.622913,110.437833 151.639223,126.310333 168.784078,117.5545 C175.062524,114.347333 178.641553,107.807 180.747961,101.095167 C183.528932,111.633667 191.062136,119.91 202.740583,118.876333 C211.130097,118.133167 216.318058,112.614833 219.432233,105.344167 C219.674563,121.438333 219.407767,139.280167 213.168932,154.319667 C212.4,153.3245 211.633398,152.292 210.862136,151.222167 C206.549126,145.244167 201.290097,141.1935 193.585631,142.770833 C186.337864,144.256 181.745243,151.739 181.169709,158.645667 C180.478835,166.966333 187.847767,172.478833 195.440388,173.0995 C203.897476,173.791333 209.855534,170.0475 214.071845,164.375167 C217.914175,168.105 222.378641,170.923667 228.11068,172.355167 C230.342913,172.914 232.692816,173.098333 234.978641,173.25 C238.731262,173.4985 238.707961,167.662833 234.978641,167.416667 L234.978641,167.416667 Z M14.5036893,44.2633333 C14.3615534,36.176 14.5933981,28.0665 15.358835,20.0118333 C15.7561165,15.834 16.078835,10.8768333 17.7565049,6.87516667 C18.4648544,8.63566667 18.6396117,10.8056667 18.8330097,12.5521667 C19.8780583,21.9438333 19.0625243,31.6225 18.1607767,40.9873333 C17.4687379,48.1763333 16.5133981,55.3653333 15.3157282,62.5275 C14.8403883,56.4095 14.6097087,50.2891667 14.5036893,44.2633333 L14.5036893,44.2633333 Z M97.5961165,28.7525 C97.8419417,26.7026667 98.2287379,24.4346667 99.096699,22.5411667 C100.91301,26.565 100.55534,32.564 100.674175,36.6041667 C100.987573,47.2266667 100.386408,58.0066667 98.9918447,68.6548333 C96.936699,55.4715 96.0302913,41.79 97.5961165,28.7525 L97.5961165,28.7525 Z M137.623689,39.9385 C137.792621,34.8576667 137.798447,28.5973333 139.971262,23.8163333 C140.554951,25.3388333 140.715728,27.1716667 140.88932,28.6731667 C142.399223,41.7095 141.024466,55.482 138.71068,68.656 C137.609709,59.0823333 137.309126,49.3955 137.623689,39.9385 L137.623689,39.9385 Z M178.638058,74.396 C178.587961,74.1906667 178.611262,74.1463333 178.638058,74.396 L178.638058,74.396 Z M199.774369,167.351333 C189.998447,168.445667 182.938252,160.3385 189.744466,151.891833 C196.203495,143.878 203.219417,150.444 207.459029,156.45 C208.352621,157.715833 209.266019,158.9315 210.205049,160.097 C207.761942,163.801167 204.380971,166.835667 199.774369,167.351333 L199.774369,167.351333 Z"></path>
        <path d="M52.9607767,56.0513333 C52.8198058,55.7375 52.9223301,55.8728333 52.9840777,56.0746667 L52.9945631,56.119 C53.1273786,56.3931667 53.2904854,56.658 53.5025243,56.896 C52.8873786,56.2076667 53.0551456,56.2578333 53.1821359,56.5086667 C53.0982524,56.3441667 53.0423301,56.2263333 52.9968932,56.1306667 C53.0330097,56.2578333 53.0609709,56.3861667 53.0924272,56.5133333 C53.2671845,57.2366667 53.6003883,57.8456667 54.0978641,58.3916667 C54.9064078,59.2806667 56.2636893,59.5221667 57.3809709,59.2106667 C58.391068,58.9295 59.2229126,58.1956667 59.951068,57.4793333 C60.6442718,56.798 61.0473786,55.5893333 60.7001942,54.6408333 C60.1724272,53.1988333 59.3533981,52.1278333 57.8714563,51.6063333 C57.7549515,51.5655 57.6372816,51.5386667 57.5172816,51.5165 C56.6027184,50.6928333 55.1813592,50.5096667 54.0920388,51.1478333 C52.9945631,51.7918333 52.5099029,53.0366667 52.727767,54.2161667 C52.6054369,54.8286667 52.6939806,55.4668333 52.9607767,56.0513333 L52.9607767,56.0513333 Z"></path>
    </g>
    <g id="bites" opacity="0.75">
        <path d="M13.4726214,154.315 L13.4726214,149.805833 L18.6780583,149.805833 C20.9883495,149.805833 22.0124272,150.654 22.0124272,152.030667 L22.0124272,152.090167 C22.0124272,153.6115 20.8124272,154.315 18.8236893,154.315 L13.4726214,154.315 M13.4726214,146.057333 L13.4726214,141.723167 L17.9172816,141.723167 C19.8186408,141.723167 20.8718447,142.483833 20.8718447,143.831333 L20.8718447,143.889667 C20.8718447,145.412167 19.6135922,146.057333 17.6248544,146.057333 L13.4726214,146.057333 M18.5906796,137.769333 L9.08621359,137.769333 L9.08621359,158.268833 L18.8236893,158.268833 C23.4454369,158.268833 26.4862136,156.394 26.4862136,152.6455 L26.4862136,152.588333 C26.4862136,149.835 25.0240777,148.458333 22.655534,147.550667 C24.1176699,146.7305 25.3456311,145.4425 25.3456311,143.127833 L25.3456311,143.0695 C25.3456311,139.848333 22.7720388,137.769333 18.5906796,137.769333"></path>
        <path d="M47.9592233,137.769333 L52.463301,137.769333 L52.463301,158.267667 L47.9592233,158.267667 L47.9592233,137.769333 Z"></path>
        <path d="M90.6314563,137.769333 L73.6706796,137.769333 L73.6706796,141.9285 L79.9001942,141.9285 L79.9001942,158.268833 L84.4031068,158.268833 L84.4031068,141.9285 L90.6314563,141.9285 L90.6314563,137.769333"></path>
        <path d="M127.078835,137.769333 L111.637282,137.769333 L111.637282,158.268833 L127.224466,158.268833 L127.224466,154.256667 L116.112233,154.256667 L116.112233,149.951667 L125.76233,149.951667 L125.76233,145.9395 L116.112233,145.9395 L116.112233,141.7815 L127.078835,141.7815 L127.078835,137.769333"></path>
        <path d="M155.365049,137.4765 C151.183689,137.4765 148.201165,139.937 148.201165,143.655167 L148.201165,143.714667 C148.201165,147.784 150.862136,148.927333 154.985243,149.980833 C158.405825,150.859333 159.10835,151.445 159.10835,152.588333 L159.10835,152.6455 C159.10835,153.847167 157.998058,154.578667 156.154951,154.578667 C153.815534,154.578667 151.886214,153.6115 150.043107,152.090167 L147.380971,155.281 C149.838058,157.477833 152.967379,158.561667 156.066408,158.561667 C160.483107,158.561667 163.583301,156.277333 163.583301,152.205667 L163.583301,152.1485 C163.583301,148.575 161.243883,147.081667 157.090485,145.997833 C153.552233,145.091333 152.674951,144.6515 152.674951,143.304 L152.674951,143.245667 C152.674951,142.249333 153.581359,141.458333 155.306796,141.458333 C157.032233,141.458333 158.815922,142.221333 160.629903,143.480167 L162.968155,140.082833 C160.892039,138.4145 158.347573,137.4765 155.365049,137.4765"></path>
    </g>
</svg>